<?xml version="1.0" encoding="utf-8"?><svg xmlns="http://www.w3.org/2000/svg" xmlns:xlink="http://www.w3.org/1999/xlink" width="1440" height="789" preserveAspectRatio="xMidYMid" viewBox="0 0 1440 789" style="z-index:1;margin-right:-2px;display:block;background-repeat-y:initial;background-repeat-x:initial;background-color:rgb(255, 255, 255);animation-play-state:paused" ><g transform="" style="animation-play-state:paused" ><linearGradient id="lg-0.4977473013187159" x1="0" x2="1" y1="0" y2="0" style="animation-play-state:paused" ><stop stop-color="#ff00ff" offset="0" style="animation-play-state:paused" ></stop>


<stop stop-color="#00ffff" offset="1" style="animation-play-state:paused" ></stop></linearGradient>
<path fill="url(#lg-0.4977473013187159)" opacity="0.4" d="M 0 0 M 0 728.294 Q 144 667.588 288 661.315 T 576 689.078 T 864 584.597 T 1152 580.896 T 1440 544.091 L 1440 183.304 Q 1296 193.886 1152 192.432 T 864 159.008 T 576 137.492 T 288 88.9917 T 0 84.9809 Z" style="opacity:0.4;animation-play-state:paused" ></path>
<path fill="url(#lg-0.4977473013187159)" opacity="0.4" d="M 0 0 M 0 727.543 Q 144 705.397 288 698.574 T 576 659.377 T 864 606.693 T 1152 604.646 T 1440 584.352 L 1440 206.953 Q 1296 185.658 1152 180.893 T 864 170.653 T 576 159.213 T 288 76.4892 T 0 47.7653 Z" style="opacity:0.4;animation-play-state:paused" ></path>
<path fill="url(#lg-0.4977473013187159)" opacity="0.4" d="M 0 0 M 0 725.911 Q 144 693.108 288 687.069 T 576 629.108 T 864 613.465 T 1152 600.812 T 1440 549.366 L 1440 239.916 Q 1296 194.415 1152 186.194 T 864 190.677 T 576 129.115 T 288 101.195 T 0 92.1563 Z" style="opacity:0.4;animation-play-state:paused" ></path>
<path fill="url(#lg-0.4977473013187159)" opacity="0.4" d="M 0 0 M 0 739.145 Q 144 727.908 288 722.362 T 576 690.545 T 864 627.298 T 1152 614.123 T 1440 546.975 L 1440 247.878 Q 1296 218.791 1152 210.305 T 864 140.568 T 576 131.723 T 288 76.0569 T 0 98.087 Z" style="opacity:0.4;animation-play-state:paused" ></path></g></svg>